<mxfile host="app.diagrams.net" modified="2024-02-09T18:41:15.872Z" agent="Mozilla/5.0 (X11; Linux x86_64) AppleWebKit/537.36 (KHTML, like Gecko) Chrome/121.0.0.0 Safari/537.36" etag="0g6HwFgIcBiQ6ja_5PQ5" version="23.1.2" type="device">
  <diagram name="Page-1" id="gZ0JkJsrRNYWMLLHbI5_">
    <mxGraphModel dx="994" dy="578" grid="1" gridSize="10" guides="1" tooltips="1" connect="1" arrows="1" fold="1" page="1" pageScale="1" pageWidth="850" pageHeight="1100" background="#ffffff" math="0" shadow="0">
      <root>
        <mxCell id="0" />
        <mxCell id="1" parent="0" />
        <mxCell id="IuPlz3uLYRQQ28bS9uge-55" value="" style="swimlane;startSize=0;fillColor=#fff2cc;strokeColor=#d6b656;swimlaneFillColor=#FFF2CC;fillStyle=solid;" vertex="1" parent="1">
          <mxGeometry x="410" y="190" width="710" height="310" as="geometry">
            <mxRectangle x="410" y="190" width="50" height="30" as="alternateBounds" />
          </mxGeometry>
        </mxCell>
        <mxCell id="IuPlz3uLYRQQ28bS9uge-10" value="&lt;br&gt;&lt;br&gt;User" style="shape=actor;whiteSpace=wrap;html=1;" vertex="1" parent="IuPlz3uLYRQQ28bS9uge-55">
          <mxGeometry x="643.75" y="197.52" width="40" height="60" as="geometry" />
        </mxCell>
        <mxCell id="IuPlz3uLYRQQ28bS9uge-17" value="" style="shape=step;perimeter=stepPerimeter;whiteSpace=wrap;html=1;fixedSize=1;direction=east;align=right;size=10;" vertex="1" parent="IuPlz3uLYRQQ28bS9uge-55">
          <mxGeometry x="53.75" y="81.19999999999999" width="143.26" height="68.8" as="geometry" />
        </mxCell>
        <mxCell id="IuPlz3uLYRQQ28bS9uge-22" value="" style="pointerEvents=1;shadow=0;dashed=0;html=1;strokeColor=none;fillColor=#4495D1;labelPosition=center;verticalLabelPosition=bottom;verticalAlign=top;align=center;outlineConnect=0;shape=mxgraph.veeam.cpu;" vertex="1" parent="IuPlz3uLYRQQ28bS9uge-55">
          <mxGeometry x="110.38000000000005" y="223.92000000000004" width="30" height="26.1" as="geometry" />
        </mxCell>
        <mxCell id="IuPlz3uLYRQQ28bS9uge-30" value="&lt;font style=&quot;font-size: 10px;&quot;&gt;Native processing&lt;br&gt;&lt;span style=&quot;text-align: right;&quot;&gt;- Rule based&lt;br&gt;- Conditional&lt;br&gt;- Light algos&lt;/span&gt;&lt;/font&gt;" style="text;html=1;strokeColor=none;fillColor=none;align=center;verticalAlign=middle;whiteSpace=wrap;rounded=0;" vertex="1" parent="IuPlz3uLYRQQ28bS9uge-55">
          <mxGeometry x="81.63000000000001" y="82.4" width="87.5" height="68.8" as="geometry" />
        </mxCell>
        <mxCell id="IuPlz3uLYRQQ28bS9uge-14" value="" style="shape=step;perimeter=stepPerimeter;whiteSpace=wrap;html=1;fixedSize=1;direction=east;size=10;" vertex="1" parent="IuPlz3uLYRQQ28bS9uge-55">
          <mxGeometry x="278.75" y="81.19999999999999" width="145" height="70" as="geometry" />
        </mxCell>
        <mxCell id="IuPlz3uLYRQQ28bS9uge-21" value="" style="image;points=[];aspect=fixed;html=1;align=center;shadow=0;dashed=0;image=img/lib/allied_telesis/computer_and_terminals/Server_Desktop.svg;" vertex="1" parent="IuPlz3uLYRQQ28bS9uge-55">
          <mxGeometry x="333.70000000000005" y="207.51999999999998" width="42.599999999999994" height="54" as="geometry" />
        </mxCell>
        <mxCell id="IuPlz3uLYRQQ28bS9uge-28" value="" style="sketch=0;outlineConnect=0;fontColor=#232F3E;gradientColor=none;fillColor=#01A88D;strokeColor=none;dashed=0;verticalLabelPosition=bottom;verticalAlign=top;align=center;html=1;fontSize=12;fontStyle=0;aspect=fixed;pointerEvents=1;shape=mxgraph.aws4.sagemaker_model;" vertex="1" parent="IuPlz3uLYRQQ28bS9uge-55">
          <mxGeometry x="273.75" y="207.51999999999998" width="42.5" height="42.5" as="geometry" />
        </mxCell>
        <mxCell id="IuPlz3uLYRQQ28bS9uge-31" value="&lt;font style=&quot;font-size: 10px;&quot;&gt;Server-side processing&lt;br&gt;&lt;span style=&quot;&quot;&gt;- ML based&lt;br&gt;&lt;div style=&quot;&quot;&gt;&lt;span style=&quot;background-color: initial;&quot;&gt;- Heavy Algorithms&lt;/span&gt;&lt;/div&gt;&lt;/span&gt;&lt;/font&gt;" style="text;html=1;strokeColor=none;fillColor=none;align=left;verticalAlign=middle;whiteSpace=wrap;rounded=0;" vertex="1" parent="IuPlz3uLYRQQ28bS9uge-55">
          <mxGeometry x="303.75" y="89.97" width="128.75" height="51.25" as="geometry" />
        </mxCell>
        <mxCell id="IuPlz3uLYRQQ28bS9uge-18" style="edgeStyle=orthogonalEdgeStyle;rounded=0;orthogonalLoop=1;jettySize=auto;html=1;startArrow=classic;startFill=1;exitX=0.5;exitY=0;exitDx=0;exitDy=0;" edge="1" parent="IuPlz3uLYRQQ28bS9uge-55" source="IuPlz3uLYRQQ28bS9uge-20">
          <mxGeometry relative="1" as="geometry">
            <mxPoint x="576.25" y="171.2" as="sourcePoint" />
            <mxPoint x="564.45" y="90" as="targetPoint" />
          </mxGeometry>
        </mxCell>
        <mxCell id="IuPlz3uLYRQQ28bS9uge-61" value="" style="shape=step;perimeter=stepPerimeter;whiteSpace=wrap;html=1;fixedSize=1;direction=east;size=10;" vertex="1" parent="IuPlz3uLYRQQ28bS9uge-55">
          <mxGeometry x="476.26" y="80.59999999999997" width="145" height="70" as="geometry" />
        </mxCell>
        <mxCell id="IuPlz3uLYRQQ28bS9uge-62" value="&lt;span style=&quot;font-size: 10px;&quot;&gt;Check for previously reported dark patterns&lt;/span&gt;" style="text;html=1;strokeColor=none;fillColor=none;align=center;verticalAlign=middle;whiteSpace=wrap;rounded=0;" vertex="1" parent="IuPlz3uLYRQQ28bS9uge-55">
          <mxGeometry x="500.64" y="89.97000000000003" width="96.25" height="51.25" as="geometry" />
        </mxCell>
        <mxCell id="IuPlz3uLYRQQ28bS9uge-20" value="Database" style="shape=datastore;whiteSpace=wrap;html=1;" vertex="1" parent="IuPlz3uLYRQQ28bS9uge-55">
          <mxGeometry x="523.75" y="207.52" width="76.25" height="50" as="geometry" />
        </mxCell>
        <mxCell id="IuPlz3uLYRQQ28bS9uge-50" value="" style="edgeStyle=orthogonalEdgeStyle;rounded=0;orthogonalLoop=1;jettySize=auto;html=1;entryX=0.422;entryY=-0.033;entryDx=0;entryDy=0;entryPerimeter=0;exitX=0.5;exitY=1;exitDx=0;exitDy=0;" edge="1" parent="IuPlz3uLYRQQ28bS9uge-55" source="IuPlz3uLYRQQ28bS9uge-14" target="IuPlz3uLYRQQ28bS9uge-21">
          <mxGeometry relative="1" as="geometry">
            <mxPoint x="290" y="300" as="sourcePoint" />
            <mxPoint x="210" y="110" as="targetPoint" />
          </mxGeometry>
        </mxCell>
        <mxCell id="IuPlz3uLYRQQ28bS9uge-11" style="edgeStyle=orthogonalEdgeStyle;rounded=0;orthogonalLoop=1;jettySize=auto;html=1;exitX=0.5;exitY=1;exitDx=0;exitDy=0;" edge="1" parent="IuPlz3uLYRQQ28bS9uge-55" source="IuPlz3uLYRQQ28bS9uge-30">
          <mxGeometry relative="1" as="geometry">
            <mxPoint x="125" y="210" as="targetPoint" />
            <mxPoint x="242.51" y="38.2000000000001" as="sourcePoint" />
          </mxGeometry>
        </mxCell>
        <mxCell id="c17cPs4ODMmT4z2fLXIL-11" value="" style="rounded=0;orthogonalLoop=1;jettySize=auto;html=1;strokeColor=default;entryX=1;entryY=0.7;entryDx=0;entryDy=0;exitX=0;exitY=0.75;exitDx=0;exitDy=0;" parent="IuPlz3uLYRQQ28bS9uge-55" source="IuPlz3uLYRQQ28bS9uge-10" edge="1" target="IuPlz3uLYRQQ28bS9uge-20">
          <mxGeometry relative="1" as="geometry">
            <mxPoint x="445" y="-202.5" as="sourcePoint" />
            <mxPoint x="580" y="-120" as="targetPoint" />
          </mxGeometry>
        </mxCell>
        <mxCell id="IuPlz3uLYRQQ28bS9uge-34" value="&lt;font style=&quot;font-size: 18px;&quot;&gt;Dark Pattern Classifier&lt;/font&gt;" style="text;html=1;strokeColor=none;fillColor=none;align=center;verticalAlign=middle;whiteSpace=wrap;rounded=0;" vertex="1" parent="IuPlz3uLYRQQ28bS9uge-55">
          <mxGeometry x="250.63" y="20" width="208.75" height="30" as="geometry" />
        </mxCell>
        <mxCell id="6NxGsOFJBlyZOmLDARHa-10" style="edgeStyle=orthogonalEdgeStyle;rounded=0;orthogonalLoop=1;jettySize=auto;html=1;entryX=0;entryY=0.5;entryDx=0;entryDy=0;exitX=1;exitY=0.5;exitDx=0;exitDy=0;exitPerimeter=0;" parent="1" target="2_KHZOJ8DBUEH01xGZ7C-1" edge="1">
          <mxGeometry relative="1" as="geometry">
            <mxPoint x="270" y="-383.70000000000005" as="targetPoint" />
            <mxPoint x="120" y="-549.9000000000001" as="sourcePoint" />
          </mxGeometry>
        </mxCell>
      </root>
    </mxGraphModel>
  </diagram>
</mxfile>
